<svg version="1.1" xmlns="http://www.w3.org/2000/svg" xmlns:xlink="http://www.w3.org/1999/xlink" height="68.378" width="71.546"><defs><path id="path-0" opacity="1" fill-rule="evenodd" d="M41.631 3.812h3.02l.755.757v3.019l-.755.756h-3.02c-.296-.295-.46-.461-.757-.756v-3.02l.757-.756z"/><path id="path-1" opacity="1" fill-rule="evenodd" d="M64.008 34.294h3.02l.755.757v3.019l-.755.757h-3.02c-.296-.296-.46-.462-.757-.757v-3.019"/><path id="path-2" opacity="1" fill-rule="evenodd" d="M60.303 38h3.02l.755.756v3.019l-.756.757h-3.019l-.757-.757v-3.019"/><path id="path-3" opacity="1" fill-rule="evenodd" d="M56.598 41.705h3.02l.755.757v3.018l-.756.757h-3.019c-.296-.296-.462-.46-.757-.757v-3.018"/><path id="path-4" opacity="1" fill-rule="evenodd" d="M52.892 45.41h3.02l.756.757v3.018l-.756.757h-3.02a539.92 539.92 0 0 1-.756-.757v-3.018"/><path id="path-5" opacity="1" fill-rule="evenodd" d="M49.187 49.115h3.02c.294.296.46.461.756.757v3.02c-.296.294-.462.46-.756.755h-3.02l-.757-.756v-3.019"/><path id="path-6" opacity="1" fill-rule="evenodd" d="M45.482 52.82h3.02c.294.296.46.462.756.757v3.02c-.296.294-.462.46-.756.756h-3.02l-.757-.757v-3.019l.757-.757z"/><path id="path-7" opacity="1" fill-rule="evenodd" d="M41.777 56.525h3.02l.755.757v3.02c-.295.295-.461.46-.755.756h-3.02l-.757-.757v-3.019"/><path id="path-8" opacity="1" fill-rule="evenodd" d="M38.072 60.232h3.019l.756.756v3.019c-.295.296-.461.46-.756.757h-3.02l-.756-.757v-3.02"/><path id="path-9" opacity="1" fill-rule="evenodd" d="M60.303 3.812h3.02l.755.757v3.019l-.756.756h-3.019l-.757-.756v-3.02"/><path id="path-10" opacity="1" fill-rule="evenodd" d="M63.998 7.507h3.02l.756.756v3.019c-.296.296-.462.46-.756.757h-3.02l-.757-.757v-3.02"/><path id="path-11" opacity="1" fill-rule="evenodd" d="M37.948 7.495h3.019l.756.757v3.02l-.756.756h-3.02l-.756-.757V8.252l.757-.757z"/><path id="path-12" opacity="1" fill-rule="evenodd" d="M45.36 0h14.694l.757.757v3.018l-.757.757H45.36l-.757-.757V.757L45.36 0z"/><path id="path-13" opacity="1" fill-rule="evenodd" d="M37.283 11.024h-3.02l-.755.757V14.8l.755.757h3.02l.757-.757v-3.018"/><path id="path-14" opacity="1" fill-rule="evenodd" d="M37.283 63.846h-3.02l-.755.756v3.019l.755.757h3.02l.757-.757V64.6"/><path id="path-15" opacity="1" fill-rule="evenodd" d="M67.771 11.023h3.02l.755.757v22.498l-.756.756h-3.019c-.296-.295-.46-.461-.757-.756V11.78"/><path id="path-16" opacity="1" fill-rule="evenodd" d="M29.916 3.812h-3.02l-.756.757v3.019l.756.756h3.02c.295-.295.46-.461.757-.756v-3.02"/><path id="path-17" opacity="1" fill-rule="evenodd" d="M7.539 34.294h-3.02c-.294.296-.46.462-.756.757v3.019c.296.296.462.461.756.757h3.02c.295-.296.46-.462.757-.757v-3.019"/><path id="path-18" opacity="1" fill-rule="evenodd" d="M11.244 38h-3.02l-.756.756v3.019c.296.296.462.461.756.757h3.02l.757-.757v-3.019"/><path id="path-19" opacity="1" fill-rule="evenodd" d="M14.949 41.705h-3.02l-.755.757v3.018l.755.757h3.02l.757-.757v-3.018"/><path id="path-20" opacity="1" fill-rule="evenodd" d="M18.654 45.41h-3.02l-.755.757v3.018l.756.757h3.019c.296-.295.462-.46.757-.757v-3.018"/><path id="path-21" opacity="1" fill-rule="evenodd" d="M22.359 49.115H19.34l-.756.757v3.02c.296.294.461.46.756.755h3.02l.756-.756v-3.019"/><path id="path-22" opacity="1" fill-rule="evenodd" d="M26.065 52.82h-3.02l-.756.757v3.02c.296.294.461.46.756.756h3.02l.756-.757v-3.019"/><path id="path-23" opacity="1" fill-rule="evenodd" d="M29.77 56.525h-3.02c-.294.296-.46.462-.756.757v3.02c.296.295.462.46.756.756h3.02l.757-.757v-3.019"/><path id="path-24" opacity="1" fill-rule="evenodd" d="M33.475 60.232h-3.02l-.755.756v3.019c.295.296.461.46.755.757h3.02l.757-.757v-3.02"/><path id="path-25" opacity="1" fill-rule="evenodd" d="M11.244 3.812h-3.02c-.294.296-.46.46-.756.757v3.019c.296.295.462.46.756.756h3.02c.296-.295.46-.461.757-.756v-3.02l-.757-.756z"/><path id="path-26" opacity="1" fill-rule="evenodd" d="M7.55 7.507H4.53l-.757.756v3.019l.756.757h3.02l.756-.757v-3.02l-.756-.755z"/><path id="path-27" opacity="1" fill-rule="evenodd" d="M33.6 7.495h-3.02c-.295.296-.46.462-.757.757v3.02c.296.294.462.46.756.756h3.02l.757-.757V8.252"/><path id="path-28" opacity="1" fill-rule="evenodd" d="M26.186 0H11.493l-.757.757v3.018l.757.757h14.693l.757-.757V.757"/><path id="path-29" opacity="1" fill-rule="evenodd" d="M3.776 11.023H.756L0 11.78v22.498c.296.295.462.46.756.756h3.02l.757-.756V11.78l-.757-.757z"/><path id="path-30" opacity="1" fill-rule="evenodd" d="M51.303 8.812h3.02l.755.757v3.019l-.756.756h-3.019l-.757-.756v-3.02"/><path id="path-31" opacity="1" fill-rule="evenodd" d="M54.998 12.507h3.02l.756.756v3.019c-.296.296-.462.46-.756.757h-3.02l-.757-.757v-3.02"/><path id="path-32" opacity="1" fill-rule="evenodd" d="M58.771 16.023h3.02l.755.757v12.498l-.756.756h-3.019c-.296-.295-.46-.461-.757-.756V16.78"/></defs><g opacity="1" fill="#FF1F58" fill-opacity="1"><use xlink:href="#path-0" opacity="1"/><use xlink:href="#path-1" opacity="1"/><use xlink:href="#path-2" opacity="1"/><use xlink:href="#path-3" opacity="1"/><use xlink:href="#path-4" opacity="1"/><use xlink:href="#path-5" opacity="1"/><use xlink:href="#path-6" opacity="1"/><use xlink:href="#path-7" opacity="1"/><use xlink:href="#path-8" opacity="1"/><use xlink:href="#path-9" opacity="1"/><use xlink:href="#path-10" opacity="1"/><use xlink:href="#path-11" opacity="1"/><use xlink:href="#path-12" opacity="1"/><use xlink:href="#path-13" opacity="1"/><use xlink:href="#path-14" opacity="1"/><use xlink:href="#path-15" opacity="1"/><use xlink:href="#path-16" opacity="1"/><use xlink:href="#path-17" opacity="1"/><use xlink:href="#path-18" opacity="1"/><use xlink:href="#path-19" opacity="1"/><use xlink:href="#path-20" opacity="1"/><use xlink:href="#path-21" opacity="1"/><use xlink:href="#path-22" opacity="1"/><use xlink:href="#path-23" opacity="1"/><use xlink:href="#path-24" opacity="1"/><use xlink:href="#path-25" opacity="1"/><use xlink:href="#path-26" opacity="1"/><use xlink:href="#path-27" opacity="1"/><use xlink:href="#path-28" opacity="1"/><use xlink:href="#path-29" opacity="1"/><use xlink:href="#path-30" opacity="1"/><use xlink:href="#path-31" opacity="1"/><use xlink:href="#path-32" opacity="1"/></g></svg>